<?xml version="1.0" encoding="UTF-8"?>
<svg xmlns="http://www.w3.org/2000/svg" xmlns:xlink="http://www.w3.org/1999/xlink" width="0" height="0">
<symbol id="facebookfooter" width="24" height="24" viewBox="0 0 24 24" fill="none">
<path d="M15.997 3.985H18.188V0.169C17.81 0.117 16.51 0 14.996 0C11.837 0 9.67298 1.987 9.67298 5.639V9H6.18698V13.266H9.67298V24H13.947V13.267H17.292L17.823 9.001H13.946V6.062C13.947 4.829 14.279 3.985 15.997 3.985Z" fill="#F4F4FD"/>
</symbol>

<symbol id="twitterfooter" width="24" height="24" viewBox="0 0 24 24" fill="none">
<path d="M24 4.5585C23.1075 4.95 22.1565 5.2095 21.165 5.3355C22.185 4.7265 22.9635 3.7695 23.3295 2.616C22.3785 3.183 21.3285 3.5835 20.2095 3.807C19.3065 2.8455 18.0195 2.25 16.6155 2.25C13.8915 2.25 11.6985 4.461 11.6985 7.1715C11.6985 7.5615 11.7315 7.9365 11.8125 8.2935C7.722 8.094 4.1025 6.1335 1.671 3.147C1.2465 3.8835 0.9975 4.7265 0.9975 5.634C0.9975 7.338 1.875 8.8485 3.183 9.723C2.3925 9.708 1.617 9.4785 0.96 9.117C0.96 9.132 0.96 9.1515 0.96 9.171C0.96 11.562 2.6655 13.548 4.902 14.0055C4.5015 14.115 4.065 14.1675 3.612 14.1675C3.297 14.1675 2.979 14.1495 2.6805 14.0835C3.318 16.032 5.127 17.4645 7.278 17.511C5.604 18.8205 3.4785 19.6095 1.1775 19.6095C0.774 19.6095 0.387 19.5915 0 19.542C2.1795 20.9475 4.7625 21.75 7.548 21.75C16.602 21.75 21.552 14.25 21.552 7.749C21.552 7.5315 21.5445 7.3215 21.534 7.113C22.5105 6.42 23.331 5.5545 24 4.5585Z" fill="#F4F4FD"/>
</symbol>

<symbol id="instagramfooter" width="24" height="24" viewBox="0 0 24 24" fill="none">
<g clip-path="url(#clip0_957805_3)">
<path d="M23.9765 7.05607C23.9203 5.78085 23.7141 4.90416 23.4187 4.14449C23.1139 3.33812 22.6451 2.61617 22.0308 2.01602C21.4307 1.40652 20.704 0.932921 19.9069 0.632936C19.1429 0.337529 18.2708 0.131312 16.9955 0.0750879C15.7108 0.0141019 15.303 0 12.0445 0C8.78606 0 8.37821 0.0141019 7.09823 0.0703262C5.82302 0.126551 4.94633 0.332951 4.18684 0.628174C3.38029 0.932922 2.65835 1.40176 2.05819 2.01602C1.4487 2.61617 0.975279 3.34288 0.675111 4.13991C0.379704 4.90416 0.173487 5.77609 0.117263 7.0513C0.0562771 8.33604 0.0421753 8.7439 0.0421753 12.0023C0.0421753 15.2608 0.0562771 15.6686 0.112501 16.9486C0.168726 18.2238 0.375126 19.1005 0.670532 19.8602C0.975279 20.6666 1.4487 21.3885 2.05819 21.9887C2.65835 22.5982 3.38505 23.0718 4.18208 23.3718C4.94633 23.6672 5.81826 23.8734 7.09366 23.9296C8.37345 23.986 8.78148 23.9999 12.0399 23.9999C15.2984 23.9999 15.7062 23.986 16.9862 23.9296C18.2614 23.8734 19.1381 23.6672 19.8976 23.3718C21.5105 22.7482 22.7857 21.4729 23.4093 19.8602C23.7046 19.096 23.911 18.2238 23.9672 16.9486C24.0234 15.6686 24.0375 15.2608 24.0375 12.0023C24.0375 8.7439 24.0327 8.33604 23.9765 7.05607ZM21.8153 16.8549C21.7636 18.027 21.5667 18.6599 21.4027 19.0819C20.9994 20.1274 20.1696 20.9572 19.124 21.3605C18.7021 21.5246 18.0645 21.7215 16.897 21.7729C15.6311 21.8293 15.2515 21.8433 12.0493 21.8433C8.84705 21.8433 8.46264 21.8293 7.20134 21.7729C6.02924 21.7215 5.3963 21.5246 4.97435 21.3605C4.45404 21.1682 3.98044 20.8634 3.59603 20.4649C3.19751 20.0758 2.89277 19.6069 2.70047 19.0866C2.53637 18.6647 2.3395 18.027 2.28803 16.8596C2.23163 15.5937 2.21771 15.2139 2.21771 12.0117C2.21771 8.80946 2.23163 8.42505 2.28803 7.16394C2.3395 5.99183 2.53637 5.3589 2.70047 4.93694C2.89277 4.41645 3.19751 3.94303 3.60079 3.55843C3.98978 3.15992 4.45862 2.85517 4.97911 2.66306C5.40107 2.49896 6.03876 2.30209 7.2061 2.25044C8.47198 2.19422 8.85181 2.18011 12.0538 2.18011C15.2608 2.18011 15.6405 2.19422 16.9018 2.25044C18.0739 2.30209 18.7068 2.49896 19.1288 2.66306C19.6491 2.85517 20.1227 3.15992 20.5071 3.55843C20.9056 3.94761 21.2104 4.41645 21.4027 4.93694C21.5667 5.3589 21.7636 5.99641 21.8153 7.16394C21.8715 8.42981 21.8856 8.80946 21.8856 12.0117C21.8856 15.2139 21.8715 15.589 21.8153 16.8549Z" fill="#F4F4FD"/>
<path d="M12.0445 5.83691C8.64086 5.83691 5.87927 8.59832 5.87927 12.0022C5.87927 15.406 8.64086 18.1674 12.0445 18.1674C15.4484 18.1674 18.2098 15.406 18.2098 12.0022C18.2098 8.59832 15.4484 5.83691 12.0445 5.83691ZM12.0445 16.0014C9.8364 16.0014 8.04528 14.2105 8.04528 12.0022C8.04528 9.79386 9.8364 8.00292 12.0445 8.00292C14.2529 8.00292 16.0438 9.79386 16.0438 12.0022C16.0438 14.2105 14.2529 16.0014 12.0445 16.0014Z" fill="#F4F4FD"/>
<path d="M19.893 5.59336C19.893 6.3882 19.2486 7.03267 18.4535 7.03267C17.6587 7.03267 17.0142 6.3882 17.0142 5.59336C17.0142 4.79835 17.6587 4.15405 18.4535 4.15405C19.2486 4.15405 19.893 4.79835 19.893 5.59336Z" fill="#F4F4FD"/>
</g>
<defs>
<clipPath>
<rect width="24" height="24" fill="white"/>
</clipPath>
</defs>
</symbol>

<symbol id="linkedin" width="16" height="16" viewBox="0 0 16 16" fill="none">
<g clip-path="url(#clip0_957769_165)">
<path d="M15.9961 16V15.9993H16.0001V10.1313C16.0001 7.26065 15.3821 5.04932 12.0261 5.04932C10.4128 5.04932 9.33009 5.93465 8.88809 6.77398H8.84143V5.31732H5.65942V15.9993H8.97276V10.71C8.97276 9.31732 9.23676 7.97065 10.9614 7.97065C12.6608 7.97065 12.6861 9.55998 12.6861 10.7993V16H15.9961Z" fill="#F4F4FD"/>
<path d="M0.264038 5.31793H3.58137V15.9999H0.264038V5.31793Z" fill="#F4F4FD"/>
<path d="M1.92139 -6.10352e-05C0.860728 -6.10352e-05 6.10352e-05 0.860606 6.10352e-05 1.92127C6.10352e-05 2.98194 0.860728 3.86061 1.92139 3.86061C2.98206 3.86061 3.84273 2.98194 3.84273 1.92127C3.84206 0.860606 2.98139 -6.10352e-05 1.92139 -6.10352e-05V-6.10352e-05Z" fill="#F4F4FD"/>
</g>
<defs>
<clipPath>
<rect width="16" height="16" fill="white"/>
</clipPath>
</defs>
</symbol>

<symbol id="facebook" width="16" height="16" viewBox="0 0 16 16" fill="none">
<g clip-path="url(#clip0_957769_161)">
<path d="M10.6647 2.65661H12.1254V0.112606C11.8734 0.077939 11.0067 -6.10352e-05 9.99736 -6.10352e-05C7.89136 -6.10352e-05 6.4487 1.32461 6.4487 3.75927V5.99994H4.12469V8.84394H6.4487V15.9999H9.29803V8.84461H11.528L11.882 6.00061H9.29736V4.04127C9.29803 3.21927 9.51936 2.65661 10.6647 2.65661Z" fill="#F4F4FD"/>
</g>
<defs>
<clipPath>
<rect width="16" height="16" fill="white"/>
</clipPath>
</defs>
</symbol>

<symbol id="twitter" width="16" height="16" viewBox="0 0 16 16" fill="none">
<path d="M16 3.03894C15.405 3.29994 14.771 3.47294 14.11 3.55694C14.79 3.15094 15.309 2.51294 15.553 1.74394C14.919 2.12194 14.219 2.38894 13.473 2.53794C12.871 1.89694 12.013 1.49994 11.077 1.49994C9.261 1.49994 7.799 2.97394 7.799 4.78094C7.799 5.04094 7.821 5.29094 7.875 5.52894C5.148 5.39594 2.735 4.08894 1.114 2.09794C0.831 2.58894 0.665 3.15094 0.665 3.75594C0.665 4.89194 1.25 5.89894 2.122 6.48194C1.595 6.47194 1.078 6.31894 0.64 6.07794C0.64 6.08794 0.64 6.10094 0.64 6.11394C0.64 7.70794 1.777 9.03194 3.268 9.33694C3.001 9.40994 2.71 9.44494 2.408 9.44494C2.198 9.44494 1.986 9.43294 1.787 9.38894C2.212 10.6879 3.418 11.6429 4.852 11.6739C3.736 12.5469 2.319 13.0729 0.785 13.0729C0.516 13.0729 0.258 13.0609 0 13.0279C1.453 13.9649 3.175 14.4999 5.032 14.4999C11.068 14.4999 14.368 9.49994 14.368 5.16594C14.368 5.02094 14.363 4.88094 14.356 4.74194C15.007 4.27994 15.554 3.70294 16 3.03894Z" fill="#F4F4FD"/>
</symbol>

<symbol id="instagram" width="16" height="16" viewBox="0 0 16 16" fill="none">
<g clip-path="url(#clip0_957769_149)">
<path d="M15.9843 4.70398C15.9468 3.85384 15.8093 3.26938 15.6124 2.76293C15.4092 2.22535 15.0967 1.74405 14.6872 1.34395C14.2871 0.937622 13.8026 0.621887 13.2713 0.421896C12.7619 0.224959 12.1805 0.0874805 11.3303 0.0499976C10.4738 0.00934021 10.2019 -6.10352e-05 8.02963 -6.10352e-05C5.85733 -6.10352e-05 5.58543 0.00934021 4.73212 0.0468231C3.88197 0.084306 3.29751 0.221906 2.79119 0.418722C2.25348 0.621887 1.77219 0.934448 1.37209 1.34395C0.965758 1.74405 0.650145 2.22852 0.450033 2.75988C0.253096 3.26938 0.115618 3.85067 0.0781347 4.70081C0.0374774 5.5573 0.0280762 5.8292 0.0280762 8.0015C0.0280762 10.1738 0.0374774 10.4457 0.0749603 11.299C0.112443 12.1492 0.250043 12.7336 0.446981 13.2401C0.650145 13.7777 0.965758 14.259 1.37209 14.6591C1.77219 15.0654 2.25666 15.3811 2.78801 15.5811C3.29751 15.778 3.8788 15.9155 4.72906 15.953C5.58226 15.9906 5.85428 15.9999 8.02658 15.9999C10.1989 15.9999 10.4708 15.9906 11.3241 15.953C12.1742 15.9155 12.7587 15.778 13.265 15.5811C14.3403 15.1654 15.1904 14.3152 15.6062 13.2401C15.803 12.7306 15.9406 12.1492 15.9781 11.299C16.0156 10.4457 16.025 10.1738 16.025 8.0015C16.025 5.8292 16.0218 5.5573 15.9843 4.70398ZM14.5435 11.2365C14.509 12.0179 14.3778 12.4399 14.2684 12.7212C13.9995 13.4182 13.4463 13.9714 12.7493 14.2403C12.468 14.3497 12.043 14.4809 11.2646 14.5152C10.4207 14.5528 10.1676 14.5621 8.03281 14.5621C5.89799 14.5621 5.64172 14.5528 4.80085 14.5152C4.01945 14.4809 3.5975 14.3497 3.31619 14.2403C2.96932 14.1121 2.65359 13.9089 2.39731 13.6432C2.13163 13.3838 1.92847 13.0712 1.80027 12.7243C1.69087 12.443 1.55962 12.0179 1.52532 11.2397C1.48771 10.3958 1.47843 10.1425 1.47843 8.00773C1.47843 5.87291 1.48771 5.61664 1.52532 4.7759C1.55962 3.99449 1.69087 3.57254 1.80027 3.29123C1.92847 2.94424 2.13163 2.62863 2.40049 2.37223C2.65981 2.10655 2.97237 1.90339 3.31937 1.77531C3.60067 1.66591 4.0258 1.53466 4.80403 1.50023C5.64794 1.46275 5.90117 1.45335 8.03586 1.45335C10.1738 1.45335 10.4269 1.46275 11.2678 1.50023C12.0492 1.53466 12.4712 1.66591 12.7525 1.77531C13.0993 1.90339 13.4151 2.10655 13.6714 2.37223C13.937 2.63168 14.1402 2.94424 14.2684 3.29123C14.3778 3.57254 14.509 3.99755 14.5435 4.7759C14.581 5.61981 14.5904 5.87291 14.5904 8.00773C14.5904 10.1425 14.581 10.3926 14.5435 11.2365Z" fill="#F4F4FD"/>
<path d="M8.02967 3.8913C5.76055 3.8913 3.91949 5.73223 3.91949 8.00147C3.91949 10.2707 5.76055 12.1117 8.02967 12.1117C10.2989 12.1117 12.1398 10.2707 12.1398 8.00147C12.1398 5.73223 10.2989 3.8913 8.02967 3.8913ZM8.02967 10.6676C6.55758 10.6676 5.3635 9.47368 5.3635 8.00147C5.3635 6.52926 6.55758 5.3353 8.02967 5.3353C9.50188 5.3353 10.6958 6.52926 10.6958 8.00147C10.6958 9.47368 9.50188 10.6676 8.02967 10.6676Z" fill="#F4F4FD"/>
<path d="M13.262 3.72883C13.262 4.25872 12.8324 4.68837 12.3024 4.68837C11.7725 4.68837 11.3428 4.25872 11.3428 3.72883C11.3428 3.19882 11.7725 2.76929 12.3024 2.76929C12.8324 2.76929 13.262 3.19882 13.262 3.72883Z" fill="#F4F4FD"/>
</g>
<defs>
<clipPath>
<rect width="16" height="16" fill="white"/>
</clipPath>
</defs>
</symbol>

<symbol id="astronaut" width="64" height="64" fill="none"><path fill="#4D5AE5" d="M63.948 9.048a1.068 1.068 0 0 0-.86-.725l-3.822-.556-1.71-3.462c-.358-.73-1.553-.73-1.912 0l-1.71 3.462-3.82.556a1.066 1.066 0 0 0-.592 1.819l2.765 2.695-.653 3.806c-.068.4.096.804.424 1.043.332.241.765.271 1.124.081L56.6 15.97l3.418 1.797a1.068 1.068 0 0 0 1.547-1.124l-.652-3.806 2.766-2.695a1.07 1.07 0 0 0 .27-1.094Zm-4.926 2.654c-.25.244-.366.598-.306.944l.382 2.228-2.001-1.051a1.063 1.063 0 0 0-.994 0l-2.001 1.051.382-2.228a1.068 1.068 0 0 0-.307-.944l-1.62-1.579 2.238-.325c.348-.05.648-.269.803-.584l1-2.026L57.6 9.214c.156.315.456.534.804.584l2.237.325-1.618 1.579ZM52.267 41.044h-2.134v2.134h2.134v-2.134ZM52.267 45.311h-2.134v2.134h2.134V45.31Z"/><path fill="#4D5AE5" d="M54.4 43.178h-2.133v2.133H54.4v-2.133ZM50.134 43.178H48v2.133h2.134v-2.133ZM44.8 52.778h-2.133v2.133H44.8v-2.133ZM44.8 57.045h-2.133v2.133H44.8v-2.133ZM46.934 54.911H44.8v2.134h2.134V54.91Z"/><path fill="#4D5AE5" d="M42.667 54.911h-2.134v2.134h2.134V54.91ZM32 48.511h-2.133v2.134H32V48.51ZM32 52.778h-2.133v2.133H32v-2.133ZM34.133 50.645H32v2.133h2.133v-2.133ZM29.867 50.645h-2.134v2.133h2.134v-2.133ZM11.733 12.244H9.6v2.133h2.133v-2.133ZM11.733 16.51H9.6v2.134h2.133v-2.133ZM13.866 14.377h-2.133v2.134h2.133v-2.134ZM9.6 14.377H7.466v2.134H9.6v-2.134Z"/><path fill="#2E2F42" d="M49.43 28.319a3.548 3.548 0 0 0-2.377-1.41 3.553 3.553 0 0 0-2.68.705l-2.503 1.919h-.001l-3.795 2.835-2.716-1.082c4.842-2.172 8.227-7.016 8.227-12.64C43.585 11 37.34 4.78 29.663 4.78 21.986 4.78 15.74 11 15.74 18.646c0 2.771.828 5.348 2.24 7.517l-5.528-.048h-.01c-.017 0-.03.009-.047.01a1.04 1.04 0 0 0-.31.061c-.026.01-.052.015-.077.027-.012.005-.025.006-.038.013l-6.466 3.193h-.002l-3.787 1.822a.82.82 0 0 0-.126.07A3.56 3.56 0 0 0 .393 35.9c.44.858 1.19 1.49 2.112 1.779a3.558 3.558 0 0 0 2.757-.257l2.776-1.476 4.528-2.339 2.714-.015-10.884 10.83c0 .002-.002.002-.003.003l-2.677 2.666a3.298 3.298 0 0 0-.98 2.356c0 .89.347 1.727.98 2.357.65.647 1.504.97 2.358.97.856 0 1.709-.323 2.36-.97l2.629-2.617 3.482-2.6 1.801 1.794-3.523 3.508-.003.003-2.678 2.666a3.298 3.298 0 0 0-.98 2.355c0 .89.348 1.727.98 2.358.65.646 1.505.97 2.36.97.854 0 1.71-.324 2.36-.97l2.679-2.667 4.285-4.266c0-.002 0-.003.002-.004l2.019-2-.008-.007c.013-.013.031-.017.044-.031L32.215 38.98l6.942.987a1.052 1.052 0 0 0 .525-.066c.035-.013.066-.03.1-.047.038-.019.078-.03.114-.054l6.427-4.267c.024-.016.036-.041.059-.059.025-.02.057-.028.08-.05l2.544-2.383a3.558 3.558 0 0 0 .423-4.723ZM4.26 35.54c-.346.186-.74.223-1.116.104a1.43 1.43 0 0 1-.425-2.52l2.628-1.264.632 1.849.266.776L4.26 35.54Zm6.995-3.655-3.097 1.6-.51-1.494-.367-1.073 4.053-2-.079 2.967Zm30.199-13.241c0 1.837-.438 3.57-1.198 5.119l-8.363-3.798a3.722 3.722 0 0 0-1.576-2.776l2.928-9.72C38 8.98 41.454 13.416 41.454 18.643Zm-23.578 0c0-6.47 5.289-11.734 11.789-11.734.506 0 1 .043 1.49.105l-2.864 9.507c-.038 0-.075-.011-.114-.011a3.743 3.743 0 0 0-3.745 3.733 3.743 3.743 0 0 0 3.745 3.733c1.389 0 2.589-.766 3.236-1.889l7.725 3.51c-2.15 2.893-5.59 4.78-9.473 4.78-6.5 0-11.789-5.265-11.789-11.734Zm11.913 1.6c0 .882-.724 1.6-1.612 1.6a1.608 1.608 0 0 1-1.612-1.6c0-.882.723-1.6 1.612-1.6.889 0 1.612.718 1.612 1.6ZM4.929 50.292a1.217 1.217 0 0 1-1.708.002 1.187 1.187 0 0 1 0-1.689l1.924-1.917 1.702 1.695-1.917 1.91Zm6.428 7.467a1.216 1.216 0 0 1-1.71.002 1.188 1.188 0 0 1 0-1.689l1.926-1.918.805.801.899.894-1.92 1.91Zm6.964-6.937-.004.002-3.53 3.52-.805-.801-.898-.894 3.527-3.51v-.002s.002 0 .003-.002c.08-.08.13-.176.18-.27.013-.028.04-.052.052-.08.033-.083.038-.171.05-.258.007-.049.028-.095.028-.145 0-.071-.025-.14-.04-.211-.013-.064-.013-.13-.037-.191-.04-.1-.11-.189-.183-.275-.02-.024-.027-.054-.05-.076h-.001l-.002-.004-3.214-3.2c-.034-.034-.078-.048-.116-.077a1.026 1.026 0 0 0-.174-.115.99.99 0 0 0-.187-.065 1.022 1.022 0 0 0-.206-.04 1.035 1.035 0 0 0-.19.01 1.068 1.068 0 0 0-.209.04.99.99 0 0 0-.188.09c-.04.022-.085.03-.122.057l-3.547 2.648-1.801-1.794 4.798-4.773 8.72 8.578-1.854 1.838Zm13.637-14.034c-.03-.004-.06.008-.09.006a1.044 1.044 0 0 0-.23.014c-.061.01-.119.022-.177.042a.981.981 0 0 0-.193.094c-.06.036-.114.075-.166.123-.026.022-.057.033-.08.058l-9.397 10.292-8.656-8.514 5.666-5.636a1.068 1.068 0 0 0-.759-1.822l-4.437.026.055-3.215 6.208.053a13.897 13.897 0 0 0 9.963 4.202c.875 0 1.728-.09 2.559-.245.08.064.159.129.26.17l4.819 1.92.305 1.516.356 1.77-6.006-.854Zm8.083.357-.627-3.116 2.893-2.16.758 1.005 1.136 1.508-4.16 2.763Zm7.507-5.662-1.676 1.57-1.862-2.473 1.663-1.274c.31-.24.701-.336 1.085-.286.387.054.728.256.96.568.434.584.36 1.398-.17 1.895Z"/><path fill="#2E2F42" d="m27.204 37.088-4.286-4.267a1.066 1.066 0 0 0-1.505 0l-4.285 4.267a1.072 1.072 0 0 0 0 1.513l4.285 4.266a1.066 1.066 0 0 0 1.505 0l4.286-4.266a1.067 1.067 0 0 0 0-1.513Zm-5.038 3.518-2.773-2.762 2.773-2.761 2.775 2.761-2.775 2.762ZM34.328 10.142l-.515 2.071c.142.035 3.476.904 3.476 4.298h2.133c0-4.034-3.331-5.931-5.093-6.37ZM39.422 18.644h-2.133v2.134h2.133v-2.134Z"/></symbol>
<symbol id="diagram" width="64" height="64" fill="none"><g clip-path="url(#a)"><path fill="#4D5AE5" d="M29.851 29.93h2.132v9.594h-2.132V29.93ZM38.38 34.194h2.132v5.33H38.38v-5.33ZM21.322 37.392h2.132v2.132h-2.132v-2.132ZM14.925 36.326h2.133v3.198h-2.133v-3.198Z"/><path fill="#2E2F42" d="M3.198 56.582h51.173a3.198 3.198 0 0 0 3.199-3.198v-4.265a3.198 3.198 0 0 0-3.199-3.198h-1.066V19.334l6.056-5.736a3.216 3.216 0 1 0-1.493-1.526l-4.563 4.325v-2.46a3.198 3.198 0 0 0-3.198-3.198H7.463a3.198 3.198 0 0 0-3.199 3.199V45.92H3.198A3.198 3.198 0 0 0 0 49.119v4.265a3.198 3.198 0 0 0 3.198 3.198Zm57.57-46.909a1.066 1.066 0 1 1 0 2.133 1.066 1.066 0 0 1 0-2.133ZM6.397 13.938c0-.59.477-1.067 1.066-1.067h42.644c.589 0 1.066.478 1.066 1.067v4.477l-2.132 2.026V16.07c0-.589-.477-1.066-1.066-1.066H9.595c-.589 0-1.066.477-1.066 1.066v26.652c0 .59.477 1.067 1.066 1.067h38.38c.589 0 1.066-.478 1.066-1.067V23.374l2.132-2.02V45.92H6.397V13.938Zm9.595 13.859a3.198 3.198 0 1 0 2.214 5.497l3.706 1.86c.43.215.953.114 1.273-.246l7.877-8.863 7.744 5.803c.416.311.996.278 1.372-.079l6.73-6.375v16.262H10.662v-24.52H46.91v5.32L39.366 29.6l-7.81-5.855a1.067 1.067 0 0 0-1.435.145l-7.986 8.985-2.986-1.493c.022-.128.036-.257.041-.387a3.199 3.199 0 0 0-3.198-3.198Zm1.066 3.198a1.066 1.066 0 1 1-2.133 0 1.066 1.066 0 0 1 2.133 0Zm6.396 17.058h10.661v1.066c0 .589-.477 1.066-1.066 1.066H24.52a1.066 1.066 0 0 1-1.066-1.066v-1.066ZM2.132 49.12c0-.589.478-1.066 1.066-1.066h18.124v1.066a3.198 3.198 0 0 0 3.198 3.199h8.53a3.198 3.198 0 0 0 3.198-3.199v-1.066H54.37c.59 0 1.067.477 1.067 1.066v4.265c0 .588-.478 1.066-1.067 1.066H3.198a1.066 1.066 0 0 1-1.066-1.066v-4.265Z"/></g><defs><clipPath><path fill="#fff" d="M0 0h64v64H0z"/></clipPath></defs></symbol>
<symbol id="clock" width="64" height="64" fill="none"><path fill="#2E2F42" d="M62.593 30.602C62.59 13.698 48.883-.003 31.977 0 15.073.003 1.372 13.71 1.375 30.616a30.61 30.61 0 0 0 21.299 29.152c.12.038.247.058.373.057.242 0 .478-.065.685-.187.27-.16.472-.414.567-.713l7.73-24.5a3.826 3.826 0 1 0-1.68-7.27L20.137 16.942a1.275 1.275 0 0 0-1.803 1.804l10.207 10.218a3.752 3.752 0 0 0 1.072 4.618l-7.365 23.346C7.692 51.566.239 35.42 5.601 20.864 10.963 6.31 27.11-1.145 41.665 4.217 56.22 9.58 63.673 25.726 58.312 40.281a28.087 28.087 0 0 1-14.925 15.947l-.796-3.749a1.275 1.275 0 0 0-2.096-.687l-7.674 6.851a1.275 1.275 0 0 0 .462 2.169l9.797 3.127a1.275 1.275 0 0 0 1.638-1.48l-.782-3.678a30.51 30.51 0 0 0 18.657-28.178Zm-30.609-1.275a1.276 1.276 0 1 1 0 2.552 1.276 1.276 0 0 1 0-2.552Zm4.201 29.728 4.368-3.896 1.206 5.68-5.574-1.784Z"/><path fill="#4D5AE5" d="M30.709 6.37v2.55a1.275 1.275 0 1 0 2.55 0V6.37a1.276 1.276 0 0 0-2.55 0ZM7.752 29.327a1.275 1.275 0 0 0 0 2.55h2.55a1.275 1.275 0 1 0 0-2.55h-2.55ZM56.216 31.878a1.275 1.275 0 1 0 0-2.55h-2.55a1.276 1.276 0 0 0 0 2.55h2.55Z"/></symbol>
<symbol id="antenna" width="64" height="64" fill="none"><path fill="#2E2F42" d="M61.546 44.195 44.66 27.185l1.874-9.23c.484.188.998.287 1.517.29h.013a4.318 4.318 0 1 0-4.017-2.87l-9.92 1.21L17.945.32a1.066 1.066 0 0 0-.753-.32c-.28.001-.548.113-.747.31L13.42 3.318a1.067 1.067 0 0 0 0 1.509l1.628 1.65a29.885 29.885 0 0 0 5.04 35.327c.084.081.183.147.291.195a6.192 6.192 0 0 0-.104 1.094v12.374h-12.8A5.34 5.34 0 0 0 2.14 60.8v2.133c0 .59.478 1.067 1.067 1.067h49.067c.589 0 1.067-.478 1.067-1.067V60.8a5.34 5.34 0 0 0-5.334-5.333h-12.8v-5.484c2.005.42 4.048.635 6.097.64a29.699 29.699 0 0 0 14.08-3.567l1.637 1.646c.198.202.469.318.753.32.28-.002.548-.113.746-.31l3.025-3.009a1.067 1.067 0 0 0 0-1.508ZM46.56 12.466a2.133 2.133 0 1 1 1.503 3.646h-.006a2.133 2.133 0 0 1-1.493-3.646h-.004Zm-2.511 7.01-1.197 5.89-2.351-2.364 3.548-3.527Zm-1.212-1.804-3.84 3.817-2.97-2.987 6.81-.83ZM48.008 57.6a3.2 3.2 0 0 1 3.2 3.2v1.067H4.275V60.8a3.2 3.2 0 0 1 3.2-3.2h40.533Zm-14.933-4.267v2.134H22.408v-2.134h10.667ZM22.408 51.2v-8.107c0-2.587 2.393-4.693 5.333-4.693 2.941 0 5.334 2.106 5.334 4.693V51.2H22.408Zm12.8-3.392v-4.715c0-3.764-3.35-6.826-7.466-6.826a7.6 7.6 0 0 0-6.563 3.572 27.739 27.739 0 0 1-4.557-31.774l37.204 37.417a27.642 27.642 0 0 1-18.618 2.326Zm22.578-1.367-1.503-1.512L17.181 5.591 15.672 4.08l1.51-1.504 15.87 15.96c.007 0 .011.013.019.019L59.3 44.937l-1.514 1.504Z"/><path fill="#4D5AE5" d="M27.751 40.533h-.01a3.2 3.2 0 0 0-.01 6.4h.01a3.2 3.2 0 0 0 .01-6.4Zm.747 3.957a1.067 1.067 0 0 1-1.818-.762 1.068 1.068 0 0 1 1.061-1.061 1.067 1.067 0 0 1 .747 1.823h.01Z"/></symbol>

<symbol id="icon-close" viewBox="0 0 32 32">
<path d="M32 3.223l-3.223-3.223-12.777 12.777-12.777-12.777-3.223 3.223 12.777 12.777-12.777 12.777 3.223 3.223 12.777-12.777 12.777 12.777 3.223-3.223-12.777-12.777 12.777-12.777z"></path>
</symbol>

<symbol id="linkedinfooter" width="24" height="24" viewBox="0 0 24 24" fill="none">
<g clip-path="url(#clip0_957805_141)">
<path d="M23.9941 24V23.999H24.0001V15.197C24.0001 10.891 23.0731 7.57397 18.0391 7.57397C15.619 7.57397 13.995 8.90197 13.332 10.161H13.262V7.97597H8.48904V23.999H13.459V16.065C13.459 13.976 13.855 11.956 16.442 11.956C18.9911 11.956 19.0291 14.34 19.0291 16.199V24H23.9941Z" fill="#F4F4FD"/>
<path d="M0.396027 7.97705H5.37203V24H0.396027V7.97705Z" fill="#F4F4FD"/>
<path d="M2.88203 0C1.29103 0 3.05176e-05 1.291 3.05176e-05 2.882C3.05176e-05 4.473 1.29103 5.791 2.88203 5.791C4.47303 5.791 5.76403 4.473 5.76403 2.882C5.76303 1.291 4.47203 0 2.88203 0V0Z" fill="#F4F4FD"/>
</g>
<defs>
<clipPath>
<rect width="24" height="24" fill="white"/>
</clipPath>
</defs>
</symbol>

<symbol id="person-icon" viewBox="0 0 32 32">
<path d="M16 16c2.947 0 5.333-2.387 5.333-5.333s-2.387-5.333-5.333-5.333c-2.947 0-5.333 2.387-5.333 5.333s2.387 5.333 5.333 5.333zM16 18.667c-3.56 0-10.667 1.787-10.667 5.333v1.333c0 0.733 0.6 1.333 1.333 1.333h18.667c0.733 0 1.333-0.6 1.333-1.333v-1.333c0-3.547-7.107-5.333-10.667-5.333z"></path>
</symbol>

<symbol id="phone-icon" viewBox="0 0 24 32">
<path d="M19.635 18.487l-2.451-0.28c-0.589-0.067-1.167 0.135-1.582 0.55l-1.775 1.775c-2.731-1.389-4.969-3.618-6.359-6.359l1.785-1.785c0.415-0.415 0.618-0.994 0.55-1.582l-0.28-2.432c-0.116-0.975-0.936-1.708-1.92-1.708h-1.669c-1.090 0-1.997 0.907-1.93 1.997 0.511 8.24 7.102 14.821 15.332 15.332 1.090 0.068 1.997-0.839 1.997-1.93v-1.669c0.010-0.975-0.724-1.795-1.698-1.911z"></path>
</symbol>

<symbol id="email-icon" viewBox="0 0 24 32">
<path d="M20 8h-16c-1.1 0-1.99 0.9-1.99 2l-0.010 12c0 1.1 0.9 2 2 2h16c1.1 0 2-0.9 2-2v-12c0-1.1-0.9-2-2-2zM19.6 12.25l-7.070 4.42c-0.32 0.2-0.74 0.2-1.060 0l-7.070-4.42c-0.25-0.16-0.4-0.43-0.4-0.72 0-0.67 0.73-1.070 1.3-0.72l6.7 4.19 6.7-4.19c0.57-0.35 1.3 0.050 1.3 0.72 0 0.29-0.15 0.56-0.4 0.72z"></path>
</symbol>

<symbol id="check-icon" viewBox="0 0 10 8">
  <path d="M8.44558 0.255056C8.61838 0.089653 8.84834 -0.00178848 9.08693 2.65108e-05C9.32551 0.0018415 9.55407 0.0967713 9.72436 0.264784C9.89466 0.432797 9.99337 0.660752 9.99968 0.900549C10.006 1.14034 9.91939 1.37323 9.75816 1.55005L4.86357 7.70436C4.7794 7.79551 4.67782 7.86865 4.5649 7.91942C4.45198 7.97018 4.33003 7.99754 4.20636 7.99984C4.08268 8.00214 3.95981 7.97935 3.8451 7.93282C3.73038 7.88629 3.62618 7.81698 3.53872 7.72903L0.292827 4.46564C0.202435 4.38096 0.129933 4.27884 0.0796475 4.16537C0.0293621 4.05191 0.00232279 3.92942 0.000143182 3.80522C-0.00203643 3.68102 0.0206883 3.55765 0.0669613 3.44248C0.113234 3.3273 0.182108 3.22267 0.269473 3.13483C0.356838 3.047 0.460905 2.97775 0.575465 2.93123C0.690026 2.88471 0.812734 2.86186 0.936267 2.86405C1.0598 2.86624 1.18163 2.89343 1.29449 2.94398C1.40734 2.99454 1.50892 3.06743 1.59315 3.15831L4.16189 5.73967L8.42227 0.28219C8.42994 0.272694 8.43813 0.263635 8.4468 0.255056H8.44558Z" fill="#F4F4FD" />
</symbol>

<symbol id="subscribe-icon" viewBox="0 0 32 32">
<path fill="#fff" style="fill: var(--color1, #fff)" d="M32 2.667l-32 15 10.227 3.156 15.773-12.323-11.998 13.488 0.010 0.003-0.012-0.003v7.345l5.735-5.576 7.265 2.242 5-23.333z"></path>
</symbol>
</svg>
